<?xml version="1.0" encoding="utf-8"?>
<!-- Generator: Adobe Illustrator 19.1.0, SVG Export Plug-In . SVG Version: 6.00 Build 0)  -->
<svg version="1.1" id="Layer_1" xmlns="http://www.w3.org/2000/svg" xmlns:xlink="http://www.w3.org/1999/xlink" x="0px" y="0px"
	 viewBox="0 0 937 366" style="enable-background:new 0 0 937 366;" xml:space="preserve">
<style type="text/css">
	.st0{fill:#fff;}
</style>
<path class="st0" d="M6.8,53.4c3.1,7.3,146.3,262,146.3,262s23.1,45.3,64.2,45.3c41,0,61.1-38.2,82.1-82
	c21.9-45.6,37.3-84.2,41.8-94.8c2.5-6,19.7,16.1,27.3,24.8c7.2,8.2,17,10.3,24.7,2.6c6.2-6.2,5.3-15.5,0-22.4
	c-9.4-12.3-36.6-52.2-47.5-55.7c-14.7-4.8-25.7,5.7-29,11.5c-12.9,22.1-30,56.2-46.4,87.5c-16.2,30.7-28.2,58.2-45.7,57.7
	c-18.3-0.5-31.5-32.9-50.8-69.9C133,141.8,76.4,32.8,71,22.9C65.6,13.5,50-2.8,24.4,8C-0.8,18.6,3.7,46.1,6.8,53.4z"/>
<g>
	<g>
		<path class="st0" d="M486.5,342.5c0,4.7-1.9,18-19.8,18c-17.9,0-19.1-12.7-19.1-17.5c0-4.7,0-196.2,0-196.2
			c0-4.7,1.5-17.5,19.4-17.5c17.9,0,19.5,12.2,19.5,16.9C486.5,146.4,486.5,337.9,486.5,342.5z"/>
		<path class="st0" d="M546.8,341.7c0,0,0-171.5,0-190c0-18.9,19.1-19.1,19.1-19.1h167c79.4,0,108.7,38.7,108.7,114.1
			c0,76-29.7,114-108.7,114c0,0-148.2,0-167.1,0C546.9,360.7,546.8,341.7,546.8,341.7z M732.9,168.2H583.5v156.4h149.4
			c58.4,0,71-26.7,71-78C804,195.6,791.3,168.2,732.9,168.2z"/>
	</g>
</g>
<path class="st0" d="M934.9,342.5c0,4.7-1.9,18-19.8,18c-17.9,0-19.1-12.7-19.1-17.5c0-4.7,0-196.2,0-196.2
	c0-4.7,1.5-17.5,19.4-17.5c17.9,0,19.5,12.2,19.5,16.9C934.9,146.4,934.9,337.9,934.9,342.5z"/>
</svg>
